<?xml version="1.0" standalone="no"?>
<!DOCTYPE svg PUBLIC "-//W3C//DTD SVG 20010904//EN"
 "http://www.w3.org/TR/2001/REC-SVG-20010904/DTD/svg10.dtd">
<svg version="1.0" xmlns="http://www.w3.org/2000/svg"
 width="304.000000pt" height="160.000000pt" viewBox="0 0 304.000000 160.000000"
 preserveAspectRatio="xMidYMid meet">

<g transform="translate(0.000000,160.000000) scale(0.100000,-0.100000)"
fill="#000000" stroke="none">
<path d="M216 1441 c47 -29 94 -52 94 -47 0 6 -105 66 -116 66 -5 0 5 -9 22
-19z"/>
<path d="M1389 984 c-55 -122 -53 -114 -40 -114 6 0 17 11 23 25 10 23 17 25
70 25 53 0 60 -2 70 -25 6 -14 17 -25 24 -25 8 0 -3 33 -29 93 -48 104 -55
117 -66 117 -5 0 -28 -43 -52 -96z m81 10 c11 -26 20 -48 20 -50 0 -2 -20 -4
-45 -4 -25 0 -45 3 -45 7 0 15 35 93 42 93 4 0 16 -21 28 -46z"/>
<path d="M1596 1073 c-3 -3 -6 -51 -6 -105 l0 -98 76 0 c47 0 73 4 69 10 -3 6
-31 10 -61 10 l-54 0 0 89 c0 83 -7 111 -24 94z"/>
<path d="M1740 1071 c0 -6 15 -11 33 -13 l32 -3 3 -92 c1 -51 7 -93 12 -93 5
0 11 42 12 93 l3 92 33 3 c64 6 30 22 -48 22 -44 0 -80 -4 -80 -9z"/>
<path d="M1950 976 c0 -78 3 -106 13 -106 16 0 14 203 -2 208 -7 2 -11 -31
-11 -102z"/>
<path d="M2040 1001 c0 -96 4 -107 42 -127 38 -20 82 -10 108 23 16 21 20 41
20 104 0 46 -4 79 -10 79 -6 0 -10 -32 -10 -75 0 -67 -3 -79 -25 -100 -29 -30
-45 -31 -79 -4 -24 19 -26 26 -26 100 0 46 -4 79 -10 79 -6 0 -10 -33 -10 -79z"/>
<path d="M2270 975 c0 -124 18 -143 22 -23 l3 82 35 -52 c19 -28 37 -52 40
-52 3 0 21 23 40 51 l35 52 3 -82 c4 -119 22 -100 22 24 0 63 -4 105 -10 105
-5 0 -26 -25 -46 -55 -20 -30 -40 -55 -44 -55 -4 0 -24 25 -44 55 -20 30 -41
55 -46 55 -6 0 -10 -42 -10 -105z"/>
<path d="M1344 771 c-2 -2 -4 -49 -4 -103 l0 -98 71 0 c65 0 73 2 100 29 38
39 40 97 5 138 -21 24 -33 28 -96 33 -39 3 -73 3 -76 1z m124 -63 c7 -7 12
-24 12 -38 0 -34 -17 -50 -52 -50 -27 0 -28 2 -28 50 0 48 1 50 28 50 15 0 33
-5 40 -12z"/>
<path d="M1580 673 l0 -103 85 0 c78 0 85 2 85 20 0 16 -8 19 -57 22 -46 2
-59 7 -61 21 -3 14 4 17 47 17 44 0 51 3 51 19 0 17 -8 20 -47 23 -35 2 -48 7
-48 18 0 11 14 16 58 18 52 3 58 5 55 23 -3 19 -11 21 -86 22 l-82 2 0 -102z"/>
<path d="M1795 755 c-14 -13 -25 -33 -25 -44 0 -24 41 -57 80 -66 17 -4 32
-11 36 -16 9 -16 -28 -23 -60 -11 -25 10 -33 9 -46 -4 -13 -14 -13 -17 4 -29
50 -38 132 -27 154 19 19 37 -3 69 -59 88 -24 8 -45 20 -47 26 -4 14 36 16 58
2 10 -6 20 -4 32 7 25 22 23 29 -13 42 -51 18 -88 13 -114 -14z"/>
<path d="M2003 772 c-22 -3 -23 -7 -23 -103 l0 -99 30 0 30 0 0 99 c0 55 -3
101 -7 103 -5 2 -18 2 -30 0z"/>
<path d="M2122 761 c-39 -25 -56 -63 -48 -110 11 -70 79 -105 157 -82 42 13
53 34 47 87 -3 27 -6 29 -50 32 -42 3 -48 1 -48 -16 0 -12 9 -22 21 -25 12 -3
19 -12 17 -19 -7 -20 -47 -22 -69 -2 -48 43 0 120 61 97 24 -9 32 -8 45 7 14
15 14 18 0 30 -28 23 -97 23 -133 1z"/>
<path d="M2315 771 c-3 -2 -5 -49 -5 -103 l0 -98 29 0 c29 0 30 2 33 52 l3 52
40 -52 c31 -41 45 -52 67 -52 l29 0 -3 102 c-3 102 -3 102 -28 103 -23 0 -25
-5 -30 -53 l-5 -52 -41 53 c-27 36 -48 53 -63 53 -12 0 -24 -2 -26 -5z"/>
<path d="M2554 771 c-2 -2 -4 -49 -4 -103 l0 -98 85 0 c78 0 85 2 85 20 0 18
-7 20 -55 20 -48 0 -55 2 -55 20 0 17 7 20 50 20 43 0 50 3 50 20 0 17 -7 20
-50 20 -43 0 -50 3 -50 20 0 18 7 20 56 20 51 0 55 2 52 21 -3 19 -10 21 -81
22 -43 1 -81 0 -83 -2z"/>
<path d="M2754 771 c-2 -2 -4 -49 -4 -103 l0 -98 30 0 c27 0 30 3 30 30 0 19
5 30 14 30 8 0 23 -13 33 -30 14 -24 24 -30 51 -30 l33 0 -21 30 -21 30 20 26
c24 31 27 62 7 90 -11 15 -30 20 -91 24 -42 3 -78 3 -81 1z m110 -47 c9 -3 16
-14 16 -24 0 -19 -19 -30 -51 -30 -13 0 -19 7 -19 23 0 36 17 45 54 31z"/>
<path d="M318 474 c-38 -20 -36 -28 2 -9 17 9 30 18 30 20 0 7 -1 6 -32 -11z"/>
<path d="M234 424 c-18 -14 -18 -15 4 -4 12 6 22 13 22 15 0 8 -5 6 -26 -11z"/>
</g>
</svg>
