<?xml version="1.0" standalone="no"?>
<!DOCTYPE svg PUBLIC "-//W3C//DTD SVG 20010904//EN"
 "http://www.w3.org/TR/2001/REC-SVG-20010904/DTD/svg10.dtd">
<svg version="1.0" xmlns="http://www.w3.org/2000/svg"
 width="300.000000pt" height="98.000000pt" viewBox="0 0 300.000000 98.000000"
 preserveAspectRatio="xMidYMid meet">

<g transform="translate(0.000000,98.000000) scale(0.100000,-0.100000)"
fill="#000000" stroke="none">
<path d="M62 865 c2 -3 40 -10 84 -15 74 -11 193 -38 239 -55 18 -7 18 -6 4 6
-8 8 -23 26 -32 42 l-17 27 -142 0 c-78 0 -139 -2 -136 -5z"/>
<path d="M27 847 c4 -6 19 -30 34 -52 24 -35 57 -119 72 -180 4 -18 5 -18 6 3
1 25 4 26 32 12 14 -8 19 -7 19 3 0 8 9 22 21 33 18 17 37 19 149 19 71 0 132
4 137 8 4 5 -8 22 -27 38 -44 37 -182 82 -320 104 -58 9 -111 18 -118 21 -8 2
-10 -1 -5 -9z"/>
<path d="M8 644 l3 -205 39 -27 c23 -16 37 -33 35 -42 -13 -47 -12 -68 0 -30
29 86 38 217 21 297 -15 74 -58 172 -85 197 -15 13 -16 -3 -13 -190z"/>
<path d="M1623 809 c-57 -17 -73 -50 -73 -148 0 -68 4 -93 20 -118 39 -65 145
-66 192 -2 26 35 35 139 16 193 -21 64 -86 95 -155 75z m80 -30 c35 -16 47
-49 47 -128 0 -90 -21 -121 -85 -121 -64 0 -85 30 -85 124 0 77 14 110 54 126
29 12 41 12 69 -1z"/>
<path d="M2463 809 c-38 -11 -63 -43 -63 -80 0 -34 22 -53 93 -79 86 -32 102
-54 71 -98 -21 -30 -95 -31 -124 -2 -11 11 -20 25 -20 30 0 6 -7 10 -15 10
-43 0 9 -74 64 -91 74 -22 141 20 141 88 0 43 -24 66 -91 88 -30 10 -60 22
-66 28 -20 15 -15 54 9 71 34 24 67 19 98 -14 43 -46 70 -33 35 17 -13 18 -75
45 -95 42 -3 0 -19 -5 -37 -10z"/>
<path d="M744 668 c-26 -79 -49 -149 -52 -155 -2 -8 4 -13 15 -13 14 0 23 12
34 48 l15 47 58 0 58 0 17 -45 c10 -28 24 -46 35 -48 13 -3 17 1 14 9 -3 8
-26 78 -52 157 -43 129 -50 142 -71 142 -21 0 -28 -13 -71 -142z m95 40 c12
-34 21 -67 21 -73 0 -7 -19 -12 -45 -12 -25 -1 -45 3 -45 7 0 13 40 140 44
140 3 0 14 -28 25 -62z"/>
<path d="M994 795 c-4 -8 -5 -67 -2 -131 3 -112 4 -117 31 -140 47 -41 73 -40
160 4 4 2 6 -2 5 -9 -2 -7 5 -15 15 -17 16 -3 17 9 17 152 0 149 -1 156 -20
156 -19 0 -20 -7 -20 -124 0 -118 -1 -126 -22 -140 -31 -22 -91 -20 -111 2
-14 15 -17 41 -17 140 0 103 -2 122 -15 122 -9 0 -18 -7 -21 -15z"/>
<path d="M1282 798 c3 -8 25 -14 52 -16 l47 -3 -2 -137 c-1 -119 1 -137 15
-140 14 -3 16 13 16 137 l0 141 45 0 c33 0 45 4 45 15 0 12 -19 15 -111 15
-84 0 -110 -3 -107 -12z"/>
<path d="M1870 656 l0 -156 56 0 c114 0 154 43 154 164 0 69 -2 78 -29 108
-27 30 -34 33 -105 36 l-76 4 0 -156z m146 101 c23 -20 28 -34 32 -84 7 -98
-28 -143 -114 -143 l-34 0 0 125 0 125 44 0 c33 0 52 -6 72 -23z"/>
<path d="M2162 658 l3 -153 83 -3 c68 -2 82 0 82 13 0 12 -13 15 -65 15 l-65
0 0 55 0 55 60 0 c47 0 60 3 60 15 0 12 -13 15 -60 15 l-60 0 0 55 0 55 65 0
c51 0 65 3 65 15 0 12 -16 15 -85 15 l-86 0 3 -152z"/>
<path d="M2690 655 c0 -143 1 -156 17 -153 14 2 17 12 15 44 -3 32 2 48 21 70
14 16 27 27 30 24 2 -3 23 -33 46 -67 47 -71 73 -90 91 -68 9 11 7 16 -8 24
-11 6 -41 40 -67 76 l-46 65 35 49 c20 27 43 54 51 61 20 17 19 30 -3 30 -11
0 -40 -29 -71 -70 -82 -107 -83 -107 -80 -14 2 67 0 79 -14 82 -15 3 -17 -13
-17 -153z"/>
<path d="M2930 796 c-15 -15 -12 -42 5 -56 10 -9 15 -9 15 -1 0 6 -4 11 -10
11 -5 0 -10 9 -10 20 0 11 5 20 10 20 6 0 10 -7 10 -15 0 -8 5 -15 11 -15 6 0
8 -7 5 -16 -8 -20 14 -14 28 9 22 34 -35 72 -64 43z m60 -28 c0 -17 -3 -18
-14 -8 -8 6 -12 18 -9 26 7 19 23 7 23 -18z"/>
<path d="M358 543 c7 -3 16 -2 19 1 4 3 -2 6 -13 5 -11 0 -14 -3 -6 -6z"/>
<path d="M325 513 c-105 -23 -175 -75 -175 -130 l0 -25 34 26 c19 14 44 26 55
26 12 0 37 20 62 49 22 28 49 52 58 54 22 6 -7 6 -34 0z"/>
<path d="M1304 439 c-16 -5 -41 -20 -55 -35 -21 -23 -24 -36 -27 -118 -4 -88
-2 -94 23 -124 33 -39 78 -49 128 -28 21 8 37 11 37 5 0 -5 11 -9 25 -9 25 0
25 1 25 85 l0 85 -60 0 c-53 0 -60 -2 -60 -20 0 -16 7 -20 30 -20 28 0 30 -3
30 -35 0 -38 -20 -55 -64 -55 -44 0 -56 23 -56 111 0 88 17 119 64 119 24 0
56 -23 56 -41 0 -5 11 -9 25 -9 50 0 25 60 -35 84 -45 18 -43 18 -86 5z"/>
<path d="M687 433 c-4 -3 -7 -73 -7 -155 l0 -148 95 0 c88 0 95 1 95 20 0 18
-7 20 -60 20 l-60 0 0 45 0 45 55 0 c52 0 55 1 55 25 0 24 -3 25 -55 25 l-55
0 0 40 0 40 60 0 c57 0 60 1 60 25 0 25 -1 25 -88 25 -49 0 -92 -3 -95 -7z"/>
<path d="M985 353 c-15 -49 -36 -115 -46 -148 -24 -77 -24 -75 9 -75 25 0 30
5 38 38 l9 37 54 0 c53 0 54 -1 66 -35 9 -27 18 -36 38 -38 15 -2 27 2 27 8 0
6 -21 76 -47 155 l-47 145 -37 0 -38 0 -26 -87z m86 -33 l16 -60 -38 0 -37 0
16 60 c9 33 19 60 22 60 3 0 12 -27 21 -60z"/>
<path d="M1530 286 l0 -156 90 0 c83 0 90 2 90 20 0 16 -8 19 -61 22 l-61 3
-1 130 -2 130 -27 3 -28 3 0 -155z"/>
<path d="M1767 434 c-4 -4 -7 -74 -7 -156 l0 -148 95 0 c88 0 95 1 95 20 0 18
-7 20 -65 20 l-65 0 0 45 0 44 58 3 c49 3 57 6 57 23 0 17 -8 20 -57 23 l-58
3 0 39 0 39 63 3 c54 3 62 5 62 23 0 18 -8 20 -85 23 -47 1 -89 0 -93 -4z"/>
<path d="M101 318 c-7 -24 -28 -76 -47 -117 -19 -41 -32 -77 -28 -80 9 -10
314 -7 369 3 l50 9 -45 8 c-124 20 -221 83 -263 170 l-24 50 -12 -43z"/>
<path d="M472 201 c-13 -55 -10 -73 9 -54 6 6 9 32 7 59 l-3 49 -13 -54z"/>
</g>
</svg>
