<?xml version="1.0" standalone="no"?>
<!DOCTYPE svg PUBLIC "-//W3C//DTD SVG 20010904//EN"
 "http://www.w3.org/TR/2001/REC-SVG-20010904/DTD/svg10.dtd">
<svg version="1.0" xmlns="http://www.w3.org/2000/svg"
 width="550.000000pt" height="177.000000pt" viewBox="0 0 550.000000 177.000000"
 preserveAspectRatio="xMidYMid meet">

<g transform="translate(0.000000,177.000000) scale(0.100000,-0.100000)"
fill="#000000" stroke="none">
<path d="M935 1423 c-16 -3 -38 -11 -49 -19 -26 -18 -14 -21 104 -27 107 -6
144 -17 160 -46 22 -42 -48 -129 -198 -246 -28 -22 -51 -43 -52 -47 -2 -37
189 71 266 150 146 148 100 243 -116 240 -47 -1 -98 -3 -115 -5z"/>
<path d="M1205 1094 c-49 -27 -65 -46 -65 -77 0 -30 39 -108 69 -138 9 -8 36
-39 61 -68 116 -137 101 -158 -127 -168 -95 -4 -133 -10 -133 -18 0 -17 35
-24 171 -31 143 -8 207 4 244 48 14 16 25 40 25 52 0 22 -59 115 -101 159 -12
12 -33 38 -48 57 -14 19 -32 41 -38 48 -7 7 -13 29 -13 48 0 40 2 41 144 48
176 8 140 48 -49 53 -87 2 -116 0 -140 -13z"/>
<path d="M745 970 c-11 -5 -32 -9 -46 -9 -15 -1 -32 -8 -39 -16 -11 -13 -2
-15 71 -15 129 -1 231 -30 244 -69 9 -28 -30 -99 -82 -148 -84 -81 -223 -143
-223 -100 0 11 52 120 102 211 9 18 12 33 6 35 -12 4 -68 -49 -68 -65 0 -7 -4
-14 -8 -16 -19 -7 -172 -259 -172 -282 0 -12 87 -5 106 9 10 8 26 15 35 15 15
0 108 40 139 60 8 5 36 22 63 36 26 15 47 31 47 36 0 4 7 8 15 8 8 0 15 3 15
8 0 4 22 30 48 58 60 63 89 133 73 172 -14 34 -41 51 -106 68 -55 15 -189 17
-220 4z"/>
<path d="M1767 962 c-27 -13 -57 -58 -57 -85 0 -23 24 -67 38 -67 6 0 12 -4
12 -9 0 -5 29 -28 65 -51 88 -58 85 -74 -15 -78 -110 -3 -120 -7 -120 -42 l0
-30 104 0 c113 0 146 14 167 68 22 59 7 78 -155 196 -15 11 -23 23 -19 27 5 5
48 9 97 11 76 3 91 6 102 23 8 13 10 25 4 34 -12 20 -184 22 -223 3z"/>
<path d="M2534 972 c-23 -3 -34 -28 -34 -78 0 -17 -4 -44 -9 -60 -6 -16 -12
-49 -15 -74 -2 -25 -9 -63 -15 -85 -21 -79 -26 -75 118 -75 108 0 130 3 135
16 12 31 5 34 -84 34 -101 0 -99 -2 -81 83 26 120 43 228 37 234 -8 8 -24 10
-52 5z"/>
<path d="M2839 959 c-6 -11 -21 -82 -35 -157 -14 -75 -27 -152 -31 -169 -6
-33 -5 -33 34 -33 l40 0 12 73 c16 95 29 165 42 233 6 30 9 57 7 59 -2 2 -16
6 -31 9 -20 3 -30 0 -38 -15z"/>
<path d="M2994 971 c-11 -11 -2 -40 14 -46 9 -4 57 -9 106 -10 115 -5 136 -18
136 -83 0 -61 -20 -117 -53 -150 -21 -20 -38 -27 -85 -30 -34 -2 -62 0 -66 6
-3 6 0 36 8 69 8 32 17 77 20 101 l6 42 -35 0 c-29 0 -37 -5 -45 -26 -6 -14
-10 -39 -10 -55 0 -17 -5 -39 -10 -49 -6 -11 -13 -46 -17 -80 l-6 -60 108 0
c89 0 116 4 151 21 52 25 87 69 110 138 36 112 -2 193 -100 207 -55 8 -225 12
-232 5z"/>
<path d="M2184 961 c-75 -19 -124 -70 -150 -157 -19 -64 -18 -98 6 -144 35
-69 127 -96 222 -65 97 31 148 108 148 223 0 63 -3 72 -32 106 -31 34 -38 37
-98 41 -36 2 -79 1 -96 -4z m133 -74 c11 -11 16 -34 16 -75 0 -79 -30 -143
-76 -160 -99 -36 -168 13 -153 108 11 70 35 117 69 134 39 20 121 16 144 -7z"/>
<path d="M3418 808 c-4 -203 -3 -208 27 -208 19 0 33 17 75 90 28 49 55 92 60
95 9 6 30 -56 30 -90 0 -11 5 -37 11 -57 8 -30 15 -38 33 -38 31 0 37 9 79
110 20 47 52 118 71 158 38 77 44 102 23 102 -12 0 -35 -45 -90 -170 -55 -127
-69 -152 -77 -144 -5 5 -16 45 -25 89 -20 93 -20 95 -45 95 -12 0 -30 -20 -52
-56 -18 -31 -38 -63 -43 -72 -6 -10 -17 -28 -25 -42 -14 -23 -15 -12 -20 134
-3 111 -9 161 -17 163 -9 3 -13 -37 -15 -159z"/>
<path d="M4000 963 c-65 -13 -138 -105 -155 -195 -19 -101 48 -188 145 -188
81 0 175 71 198 148 7 22 12 66 12 99 0 53 -4 63 -32 96 -29 32 -40 37 -88 41
-30 2 -66 2 -80 -1z m143 -66 c20 -23 27 -41 27 -72 0 -46 -27 -135 -41 -135
-5 0 -9 -6 -9 -13 0 -16 -55 -50 -95 -59 -44 -10 -82 1 -115 32 -26 25 -30 35
-30 85 0 70 27 133 73 168 59 45 145 42 190 -6z"/>
<path d="M4306 948 c-3 -13 -12 -59 -21 -103 -9 -44 -23 -108 -31 -142 -7 -34
-14 -71 -14 -82 0 -31 29 -26 36 7 3 15 10 40 15 56 5 16 9 40 9 52 0 21 5 24
43 24 l42 0 45 -80 c29 -52 51 -80 63 -80 9 0 17 2 17 4 0 7 -42 79 -56 96 -6
8 -14 24 -18 35 -5 17 0 23 27 33 41 15 71 46 86 91 9 29 8 39 -7 65 -21 35
-54 44 -164 45 -62 1 -68 -1 -72 -21z m207 -45 c13 -69 -44 -115 -138 -111
l-59 3 2 50 c5 87 2 85 102 85 87 0 88 0 93 -27z"/>
<path d="M4660 944 c0 -14 -7 -53 -15 -87 -22 -93 -45 -215 -45 -237 0 -11 6
-20 14 -20 10 0 20 26 32 80 9 44 20 80 23 79 3 0 38 -36 76 -79 39 -43 78
-79 88 -79 9 -1 17 2 17 5 0 3 -31 41 -70 83 -38 43 -70 84 -70 91 0 11 45 60
55 60 3 0 17 11 32 24 16 14 46 41 68 60 39 35 43 53 8 42 -10 -3 -34 -20 -53
-38 -68 -63 -139 -117 -143 -110 -3 4 -1 36 4 70 5 35 6 68 3 73 -11 18 -24 9
-24 -17z"/>
<path d="M5005 963 c-30 -7 -45 -32 -45 -74 0 -32 9 -45 75 -110 62 -61 75
-80 75 -105 0 -38 -14 -44 -117 -44 -58 0 -73 -3 -73 -15 0 -12 17 -15 93 -15
115 0 132 9 132 74 0 43 -4 49 -63 108 -78 75 -96 101 -87 127 5 18 16 21 98
23 78 3 92 6 95 21 3 15 -6 17 -80 16 -46 -1 -92 -3 -103 -6z"/>
</g>
</svg>
