<?xml version="1.0" encoding="utf-8"?>
<!-- Generator: Adobe Illustrator 24.2.0, SVG Export Plug-In . SVG Version: 6.00 Build 0)  -->
<svg version="1.1" id="Layer_1" xmlns="http://www.w3.org/2000/svg" xmlns:xlink="http://www.w3.org/1999/xlink" x="0px" y="0px"
	 viewBox="0 0 690 240" style="enable-background:new 0 0 690 240;" xml:space="preserve">
<path d="M648.971,127.817c-0.82-2.908-2.071-5.599-3.711-8.086c-1.336-2.027-2.754-4.08-4.5-5.736
	c-1.983-1.88-4.49-3.197-6.559-5.001c-2.975-2.594-6.621-3.645-10.255-4.399c-3.537-0.734-7.237-0.888-10.869-0.928
	c-10.482-0.113-20.966-0.044-31.449-0.036c-1.99,0.001-3.774-0.255-5.628-1.358c-4.487-2.668-5-8.461-2.326-12.145
	c1.738-2.395,4.283-3.39,7.292-3.383c16.655,0.036,33.311,0.012,49.966,0.026c1.525,0.001,2.635,0.071,3.428-1.912
	c1.434-3.59,3.547-6.908,5.355-10.351c1.355-2.581,2.694-5.17,4.007-7.773c0.826-1.636,1.589-3.304,2.478-5.16
	c-0.87,0-1.403,0-1.936,0c-20.672,0-41.344,0.033-62.016-0.024c-4.973-0.014-9.768,0.643-14.465,2.339
	c-3.97,1.433-7.271,3.817-10.406,6.524c-1.553,1.341-3.124,2.662-4.462,3.801c0-3.804,0-8.144,0-12.559
	c-0.542-0.031-0.971-0.078-1.4-0.078c-36.054-0.003-72.108,0-108.161-0.021c-0.885-0.001-1.444,0.265-1.841,1.049
	c-1.033,2.04-2.11,4.058-3.156,6.091c-2.17,4.221-4.331,8.447-6.566,12.808c-12.402-14.149-27.961-20.416-46.729-19.402
	c-18.812,1.016-32.846,10.089-43.64,24.933c-0.787-2.095-1.482-3.956-2.186-5.814c-1.219-3.22-3.289-5.952-5.607-8.359
	c-2.301-2.39-5.032-4.416-7.762-6.333c-4.718-3.312-10.2-4.82-15.828-4.862c-23.561-0.179-47.124-0.086-70.686-0.088
	c-0.323,0-0.646,0.065-1.209,0.124c0,9.314,0,18.548,0,27.782c-11.468-17.405-27.038-27.432-48.073-27.884
	c-20.96-0.451-37.085,8.611-49.06,25.593c-0.245-0.37-0.524-0.658-0.651-1.002c-0.618-1.687-1.168-3.399-1.794-5.083
	c-1.203-3.23-3.327-5.939-5.628-8.35c-3.733-3.912-7.961-7.182-13.271-8.99c-3.313-1.128-6.662-2.085-10.064-2.105
	c-23.953-0.137-47.908-0.086-71.862-0.095c0,36.446,0,72.892,0,109.338c8.551,0,17.102,0,25.838,0c0-28.184,0-56.119,0-84.079
	c0.525-0.028,0.863-0.062,1.202-0.063c14.206-0.003,28.412-0.015,42.618,0.025c1.014,0.003,2.071,0.278,3.032,0.632
	c3.192,1.174,5.08,3.468,5.452,6.88c0.229,2.106-0.11,4.13-1.495,5.823c-2.236,2.736-5.087,3.701-8.665,3.623
	c-8.96-0.196-17.928-0.074-26.892-0.04c-0.49,0.002-1.156,0.225-1.429,0.583c-0.478,0.625-0.72,1.433-1.049,2.169
	c-1.122,2.514-2.246,5.027-3.357,7.546c-1.172,2.659-2.302,5.337-3.501,7.983c-0.89,1.964-1.904,3.872-2.769,5.847
	c-0.193,0.441-0.205,1.237,0.066,1.556c1.173,1.379,2.49,2.634,3.74,3.948c3.562,3.743,7.126,7.484,10.67,11.245
	c2.605,2.765,5.165,5.572,7.769,8.338c2.655,2.82,5.342,5.609,8.01,8.417c2.574,2.71,5.233,5.347,7.662,8.182
	c0.873,1.019,1.664,1.409,2.944,1.403c8.817-0.042,17.635-0.022,26.452-0.022c2.395,0,4.791,0,7.638,0
	c-13.409-14.12-26.56-27.969-40.124-42.252c12.218,1.293,22.624-1.698,30.851-10.374c0.663,3.993,1.08,7.904,2.011,11.689
	c0.802,3.26,2.037,6.441,3.366,9.535c0.993,2.313,2.215,4.601,3.735,6.596c2.338,3.068,4.981,5.909,7.565,8.784
	c2.933,3.264,6.388,5.942,10.158,8.137c3.683,2.144,7.393,4.3,11.623,5.294c3.062,0.72,6.072,1.914,9.168,2.188
	c6.404,0.567,12.827,0.841,19.25-0.4c3.451-0.667,6.839-1.391,10.091-2.719c4.797-1.959,9.335-4.334,13.437-7.569
	c4.271-3.368,8.183-7.047,11.365-11.471c1.272-1.769,2.537-3.542,4.07-5.684c0,9.639,0,18.891,0,28.246c0.816,0,1.397,0,1.978,0
	c21.946,0,43.892-0.04,65.837,0.031c4.928,0.016,9.781-0.232,14.403-2.051c1.82-0.716,3.562-1.676,5.243-2.684
	c1.391-0.835,2.639-1.908,3.954-2.871c4.18-3.062,7.251-7.03,9.419-11.7c0.813-1.751,1.442-3.587,2.197-5.49
	c0.293,0.216,0.638,0.354,0.801,0.608c1.775,2.774,3.863,5.261,6.196,7.605c3.433,3.449,7.125,6.481,11.267,9.067
	c4.501,2.81,9.273,4.946,14.368,6.2c3.782,0.931,7.705,1.431,11.595,1.745c5.247,0.423,10.489-0.04,15.606-1.331
	c3.528-0.89,7.154-1.652,10.455-3.109c4.409-1.945,8.69-4.283,12.322-7.57c1.885-1.706,3.844-3.36,5.53-5.252
	c2.684-3.013,5.465-6.01,7.656-9.372c2.451-3.761,4.188-7.941,5.521-12.295c1.224-3.999,1.939-8.07,2.129-12.186
	c0.167-3.622-0.124-7.292-0.527-10.906c-0.329-2.946-0.987-5.876-1.742-8.75c-1.069-4.068-2.899-7.837-5.043-11.452
	c-0.417-0.704-0.797-1.429-1.252-2.249c10.894,0,21.538,0,32.299,0c0,28.034,0,55.94,0,83.873c8.698,0,17.277,0,25.992,0
	c0-28.038,0-55.937,0-84.001c0.704,0,1.28,0,1.855,0c7.593,0,15.186-0.028,22.778,0.033c1.02,0.008,1.628-0.367,2.077-1.134
	c0.379-0.648,0.626-1.371,0.968-2.043c1.558-3.067,3.129-6.127,4.696-9.189c0.091,0.002,0.182,0.005,0.274,0.007
	c0,32.121,0,64.242,0,96.442c0.79,0,1.324,0,1.858,0c28.608,0.008,57.216-0.023,85.823,0.057c5.294,0.015,10.398-0.592,15.277-2.713
	c3.217-1.398,6.076-3.377,8.694-5.656c2.973-2.588,5.307-5.683,7.351-9.114c1.697-2.849,3.023-5.839,3.445-8.954
	C650.288,138.966,650.53,133.345,648.971,127.817z M213.681,133.26c-3.326,4.374-7.481,7.852-12.695,10.126
	c-4.024,1.755-8.078,2.394-12.363,2.445c-2.193-0.164-4.479,0.005-6.557-0.572c-2.908-0.807-5.759-1.978-8.459-3.341
	c-3.81-1.924-6.863-4.885-9.4-8.275c-2.194-2.931-3.861-6.164-4.832-9.769c-1.114-4.137-1.167-8.31-0.523-12.441
	c0.413-2.654,1.34-5.297,2.454-7.756c1.718-3.792,4.312-7.035,7.563-9.662c3.01-2.432,6.217-4.503,9.977-5.736
	c4.433-1.454,8.949-1.841,13.5-1.374c2.871,0.294,5.702,0.998,8.428,2.193c3.933,1.722,7.351,4.097,10.245,7.197
	c3.119,3.342,5.758,7.041,6.631,11.655c0.58,3.065,1.33,6.186,1.268,9.267C218.802,123.019,217.219,128.606,213.681,133.26z
	 M269.054,128.849c12.785,0,25.57,0.002,38.355-0.002c2.595-0.001,4.877,0.811,6.724,2.652c3.036,3.027,3.232,8.666,0.006,11.704
	c-1.851,1.743-3.802,2.53-6.272,2.525c-14.059-0.03-28.117-0.034-42.175,0.015c-1.464,0.005-1.892-0.365-1.888-1.887
	c0.058-18.418,0.059-36.836-0.001-55.254c-0.005-1.548,0.467-1.873,1.906-1.868c13.96,0.047,27.921,0.045,41.882,0.015
	c3.13-0.007,5.682,1.118,7.455,3.668c2.466,3.547,1.822,9.103-2.208,11.749c-1.947,1.278-3.86,1.512-5.971,1.514
	c-8.915,0.006-17.831,0.045-26.745-0.04c-1.461-0.014-2.261,0.63-2.778,1.73c-0.985,2.096-1.816,4.264-2.746,6.387
	c-1.171,2.673-2.379,5.329-3.568,7.994c-1.126,2.525-2.248,5.052-3.373,7.577c-0.187,0.421-0.38,0.839-0.689,1.52
	C267.79,128.849,268.422,128.849,269.054,128.849z M417.105,127.428c-1.481,3.766-3.844,7.021-6.705,9.972
	c-2.994,3.087-6.662,5.024-10.389,6.905c-1.222,0.617-2.647,0.964-4.016,1.128c-3.075,0.368-6.184,0.845-9.258,0.731
	c-5.474-0.204-10.484-2.063-15.051-5.146c-2.99-2.018-5.587-4.483-7.602-7.39c-1.681-2.426-2.885-5.224-4.032-7.97
	c-1.641-3.929-1.852-8.101-1.382-12.294c0.368-3.283,1.453-6.343,2.789-9.375c1.807-4.1,4.676-7.305,8.02-10.073
	c3.139-2.598,6.599-4.828,10.712-5.597c3.122-0.584,6.307-1.404,9.428-1.27c3.482,0.15,6.991,0.627,10.391,1.997
	c4.147,1.671,7.653,4.119,10.74,7.188c2.489,2.475,4.488,5.34,5.879,8.657c1.591,3.795,2.661,7.625,2.283,11.983
	C419.453,120.436,418.446,124.018,417.105,127.428z M621.988,143.312c-1.959,1.947-4.169,2.421-6.742,2.417
	c-18.019-0.03-36.038,0.005-54.056-0.054c-1.459-0.005-2.364,0.366-2.989,1.678c-1.055,2.216-2.196,4.392-3.306,6.582
	c-0.543,1.071-1.097,2.137-1.647,3.205c-0.075-0.027-0.15-0.055-0.225-0.082c0-13.779,0-27.557,0-41.534
	c1.549,1.61,2.876,3.285,4.497,4.6c2.084,1.691,4.331,3.217,6.645,4.579c1.724,1.015,3.646,1.711,5.518,2.452
	c3.332,1.319,6.834,1.693,10.39,1.693c11.898,0,23.797,0.003,35.695-0.001c4.415-0.001,7.456,2.692,8.499,6.268
	C625.127,138.064,624.39,140.924,621.988,143.312z"/>
</svg>
